<svg width="10" height="37" viewBox="0 0 10 37" fill="none" xmlns="http://www.w3.org/2000/svg">
<path d="M9.54785 0.453125L8.49805 24.7451H1.80859L0.758789 0.453125H9.54785ZM0.539062 32.3135C0.539062 31.1416 0.96224 30.165 1.80859 29.3838C2.65495 28.5863 3.75358 28.1875 5.10449 28.1875C6.4554 28.1875 7.5459 28.5863 8.37598 29.3838C9.22233 30.165 9.64551 31.1416 9.64551 32.3135C9.64551 33.4854 9.22233 34.4701 8.37598 35.2676C7.5459 36.0488 6.4554 36.4395 5.10449 36.4395C3.75358 36.4395 2.65495 36.0488 1.80859 35.2676C0.96224 34.4701 0.539062 33.4854 0.539062 32.3135Z" fill="#BD0029"/>
</svg>
