<svg width="47" height="55" viewBox="0 0 47 55" fill="none" xmlns="http://www.w3.org/2000/svg">
<ellipse cx="23.0669" cy="27.117" rx="16.6841" ry="20.3917" fill="#D9D9D9"/>
<circle cx="23.067" cy="25.8811" r="6.1793" fill="#AF183E"/>
<path d="M22.9091 52.2695C18.3448 52.2695 14.3401 51.1833 10.895 49.0109C7.47178 46.8385 4.79467 43.7993 2.86363 39.8934C0.954544 35.9874 0 31.4232 0 26.2006C0 20.9341 0.954544 16.337 2.86363 12.4091C4.79467 8.48118 7.47178 5.43103 10.895 3.25862C14.3401 1.08621 18.3448 0 22.9091 0C27.4733 0 31.4671 1.08621 34.8903 3.25862C38.3354 5.43103 41.0125 8.48118 42.9216 12.4091C44.8526 16.337 45.8181 20.9341 45.8181 26.2006C45.8181 31.4232 44.8526 35.9874 42.9216 39.8934C41.0125 43.7993 38.3354 46.8385 34.8903 49.0109C31.4671 51.1833 27.4733 52.2695 22.9091 52.2695ZM22.9091 45.2915C26.3761 45.2915 29.2288 44.4028 31.4671 42.6254C33.7053 40.8479 35.362 38.5109 36.4373 35.6144C37.5125 32.7178 38.0501 29.5799 38.0501 26.2006C38.0501 22.8213 37.5125 19.6724 36.4373 16.7539C35.362 13.8354 33.7053 11.4765 31.4671 9.6771C29.2288 7.87773 26.3761 6.97805 22.9091 6.97805C19.442 6.97805 16.5893 7.87773 14.3511 9.6771C12.1128 11.4765 10.4561 13.8354 9.38087 16.7539C8.30563 19.6724 7.76802 22.8213 7.76802 26.2006C7.76802 29.5799 8.30563 32.7178 9.38087 35.6144C10.4561 38.5109 12.1128 40.8479 14.3511 42.6254C16.5893 44.4028 19.442 45.2915 22.9091 45.2915Z" fill="#AF183E"/>
<path d="M25.1023 33.0061L29.67 30.2884L46.4349 50.1112L40.0692 54.9566L25.1023 33.0061Z" fill="#AF183E"/>
</svg>
