<svg width="243" height="66" viewBox="0 0 243 66" fill="none" xmlns="http://www.w3.org/2000/svg">
<path d="M68.2036 43.1455H60.2495V37.1909H68.2036C69.2876 37.1909 70.1665 37.0078 70.8403 36.6416C71.5142 36.2754 72.0049 35.77 72.3125 35.1255C72.6348 34.4663 72.7959 33.7266 72.7959 32.9062C72.7959 32.0273 72.6348 31.2144 72.3125 30.4673C72.0049 29.7202 71.5142 29.1196 70.8403 28.6655C70.1665 28.1968 69.2876 27.9624 68.2036 27.9624H63.1499V54H55.4375V22.0078H68.2036C70.7671 22.0078 72.9717 22.4766 74.8174 23.4141C76.6777 24.3516 78.106 25.6406 79.1021 27.2812C80.0981 28.9072 80.5962 30.7676 80.5962 32.8623C80.5962 34.9277 80.0981 36.7295 79.1021 38.2676C78.106 39.8057 76.6777 41.0068 74.8174 41.8711C72.9717 42.7207 70.7671 43.1455 68.2036 43.1455ZM93.495 28.7314L85.6947 54H77.411L89.1664 22.0078H94.4179L93.495 28.7314ZM99.955 54L92.1327 28.7314L91.122 22.0078H96.4394L108.261 54H99.955ZM99.6474 42.0688V48.0234H83.2338V42.0688H99.6474ZM130.849 48.0674V54H114.678V48.0674H130.849ZM117.424 22.0078V54H109.712V22.0078H117.424ZM145.967 43.1455H138.013V37.1909H145.967C147.051 37.1909 147.93 37.0078 148.604 36.6416C149.278 36.2754 149.769 35.77 150.076 35.1255C150.399 34.4663 150.56 33.7266 150.56 32.9062C150.56 32.0273 150.399 31.2144 150.076 30.4673C149.769 29.7202 149.278 29.1196 148.604 28.6655C147.93 28.1968 147.051 27.9624 145.967 27.9624H140.914V54H133.201V22.0078H145.967C148.531 22.0078 150.736 22.4766 152.581 23.4141C154.442 24.3516 155.87 25.6406 156.866 27.2812C157.862 28.9072 158.36 30.7676 158.36 32.8623C158.36 34.9277 157.862 36.7295 156.866 38.2676C155.87 39.8057 154.442 41.0068 152.581 41.8711C150.736 42.7207 148.531 43.1455 145.967 43.1455ZM169.809 22.0078V54H162.118V22.0078H169.809ZM189.167 22.0078V54H181.455V22.0078H189.167ZM198.792 22.0078V27.9624H172.051V22.0078H198.792ZM223.182 48.0674V54H206.131V48.0674H223.182ZM208.878 22.0078V54H201.165V22.0078H208.878ZM220.985 34.708V40.4429H206.131V34.708H220.985ZM223.248 22.0078V27.9624H206.131V22.0078H223.248Z" fill="white"/>
<ellipse cx="23.0669" cy="27.117" rx="16.6841" ry="20.3917" fill="white"/>
<circle cx="23.067" cy="25.8811" r="6.1793" fill="#AF183E"/>
<path d="M22.9091 52.2695C18.3448 52.2695 14.3401 51.1833 10.895 49.0109C7.47178 46.8385 4.79467 43.7993 2.86363 39.8934C0.954544 35.9874 0 31.4232 0 26.2006C0 20.9341 0.954544 16.337 2.86363 12.4091C4.79467 8.48118 7.47178 5.43103 10.895 3.25862C14.3401 1.08621 18.3448 0 22.9091 0C27.4733 0 31.4671 1.08621 34.8903 3.25862C38.3354 5.43103 41.0125 8.48118 42.9216 12.4091C44.8526 16.337 45.8181 20.9341 45.8181 26.2006C45.8181 31.4232 44.8526 35.9874 42.9216 39.8934C41.0125 43.7993 38.3354 46.8385 34.8903 49.0109C31.4671 51.1833 27.4733 52.2695 22.9091 52.2695ZM22.9091 45.2915C26.3761 45.2915 29.2288 44.4028 31.4671 42.6254C33.7053 40.8479 35.362 38.5109 36.4373 35.6144C37.5125 32.7178 38.0501 29.5799 38.0501 26.2006C38.0501 22.8213 37.5125 19.6724 36.4373 16.7539C35.362 13.8354 33.7053 11.4765 31.4671 9.6771C29.2288 7.87773 26.3761 6.97805 22.9091 6.97805C19.442 6.97805 16.5893 7.87773 14.3511 9.6771C12.1128 11.4765 10.4561 13.8354 9.38087 16.7539C8.30563 19.6724 7.76802 22.8213 7.76802 26.2006C7.76802 29.5799 8.30563 32.7178 9.38087 35.6144C10.4561 38.5109 12.1128 40.8479 14.3511 42.6254C16.5893 44.4028 19.442 45.2915 22.9091 45.2915Z" fill="#AF183E"/>
<path d="M25.1023 33.0061L29.67 30.2884L46.4349 50.1112L40.0692 54.9566L25.1023 33.0061Z" fill="#AF183E"/>
</svg>
