<svg width="155" height="29" viewBox="0 0 155 29" fill="none" xmlns="http://www.w3.org/2000/svg">
<path d="M11.5156 19.3516H4.44531V14.0586H11.5156C12.4792 14.0586 13.2604 13.8958 13.8594 13.5703C14.4583 13.2448 14.8945 12.7956 15.168 12.2227C15.4544 11.6367 15.5977 10.9792 15.5977 10.25C15.5977 9.46875 15.4544 8.74609 15.168 8.08203C14.8945 7.41797 14.4583 6.88411 13.8594 6.48047C13.2604 6.0638 12.4792 5.85547 11.5156 5.85547H7.02344V29H0.167969V0.5625H11.5156C13.7943 0.5625 15.7539 0.979167 17.3945 1.8125C19.0482 2.64583 20.3177 3.79167 21.2031 5.25C22.0885 6.69531 22.5312 8.34896 22.5312 10.2109C22.5312 12.0469 22.0885 13.6484 21.2031 15.0156C20.3177 16.3828 19.0482 17.4505 17.3945 18.2188C15.7539 18.974 13.7943 19.3516 11.5156 19.3516ZM34.7969 6.53906L27.8633 29H20.5L30.9492 0.5625H35.6172L34.7969 6.53906ZM40.5391 29L33.5859 6.53906L32.6875 0.5625H37.4141L47.9219 29H40.5391ZM40.2656 18.3945V23.6875H25.6758V18.3945H40.2656ZM68.8008 23.7266V29H54.4258V23.7266H68.8008ZM56.8672 0.5625V29H50.0117V0.5625H56.8672Z" fill="#00875F"/>
<path d="M83.0391 19.3516H75.9688V14.0586H83.0391C84.0026 14.0586 84.7839 13.8958 85.3828 13.5703C85.9818 13.2448 86.418 12.7956 86.6914 12.2227C86.9779 11.6367 87.1211 10.9792 87.1211 10.25C87.1211 9.46875 86.9779 8.74609 86.6914 8.08203C86.418 7.41797 85.9818 6.88411 85.3828 6.48047C84.7839 6.0638 84.0026 5.85547 83.0391 5.85547H78.5469V29H71.6914V0.5625H83.0391C85.3177 0.5625 87.2773 0.979167 88.918 1.8125C90.5716 2.64583 91.8411 3.79167 92.7266 5.25C93.612 6.69531 94.0547 8.34896 94.0547 10.2109C94.0547 12.0469 93.612 13.6484 92.7266 15.0156C91.8411 16.3828 90.5716 17.4505 88.918 18.2188C87.2773 18.974 85.3177 19.3516 83.0391 19.3516ZM105.031 0.5625V29H98.1953V0.5625H105.031ZM123.039 0.5625V29H116.184V0.5625H123.039ZM131.594 0.5625V5.85547H107.824V0.5625H131.594ZM154.074 23.7266V29H138.918V23.7266H154.074ZM141.359 0.5625V29H134.504V0.5625H141.359ZM152.121 11.8516V16.9492H138.918V11.8516H152.121ZM154.133 0.5625V5.85547H138.918V0.5625H154.133Z" fill="#BD0029"/>
</svg>
